<svg xmlns="http://www.w3.org/2000/svg" width="1600" height="940" viewBox="0 0 1600 940" role="img" aria-labelledby="title desc">
  <title id="title">streaming_input High-Level Flow</title>
  <desc id="desc">High-level flow showing how offline benchmark artifacts feed the simplified streaming_input runtime, where every frame is processed immediately.</desc>
  <defs>
    <marker id="arrow" markerWidth="9" markerHeight="9" refX="7.5" refY="4.5" orient="auto">
      <path d="M0,0 L9,4.5 L0,9 z" fill="#355c52"/>
    </marker>
    <style>
      .bg { fill: #f4f5ef; }
      .panel { fill: #fffdf8; stroke: #d8ddd4; stroke-width: 2; rx: 24; ry: 24; }
      .box-muted { fill: #f5f6f2; stroke: #a5afa8; stroke-width: 2; rx: 16; ry: 16; }
      .box-input { fill: #f4f8ff; stroke: #5d7ca6; stroke-width: 2; rx: 16; ry: 16; }
      .box-runtime { fill: #f8fcfa; stroke: #4a7a6c; stroke-width: 2; rx: 16; ry: 16; }
      .box-output { fill: #fbf8ff; stroke: #79659b; stroke-width: 2; rx: 16; ry: 16; }
      .line { stroke: #355c52; stroke-width: 3; fill: none; marker-end: url(#arrow); }
      .dash { stroke: #79659b; stroke-width: 2.5; fill: none; stroke-dasharray: 10 8; marker-end: url(#arrow); }
      .title { font-family: Segoe UI, Arial, sans-serif; font-size: 34px; font-weight: 700; fill: #172321; }
      .subtitle { font-family: Segoe UI, Arial, sans-serif; font-size: 18px; fill: #60706a; }
      .section { font-family: Segoe UI, Arial, sans-serif; font-size: 22px; font-weight: 700; fill: #21312d; }
      .label { font-family: Segoe UI, Arial, sans-serif; font-size: 20px; font-weight: 700; fill: #1f2d29; }
      .text { font-family: Segoe UI, Arial, sans-serif; font-size: 16px; fill: #44534f; }
      .small { font-family: Segoe UI, Arial, sans-serif; font-size: 15px; fill: #5f6a66; }
    </style>
  </defs>

  <rect class="bg" x="0" y="0" width="1600" height="940"/>

  <text class="title" x="70" y="68">streaming_input - High-Level Flow</text>
  <text class="subtitle" x="70" y="100">Simplified runtime: every frame is scored and decided immediately</text>

  <rect class="panel" x="48" y="132" width="1504" height="220"/>
  <text class="section" x="84" y="180">A. Offline Benchmark Pipeline</text>

  <rect class="box-input" x="100" y="218" width="250" height="118"/>
  <text class="label" x="124" y="260">Dataset Input</text>
  <text class="text" x="124" y="290">Train / validation data</text>
  <text class="text" x="124" y="314">used by the benchmark flow</text>

  <rect class="box-muted" x="430" y="218" width="320" height="118"/>
  <text class="label" x="454" y="260">benchmark_AD pipeline</text>
  <text class="text" x="454" y="290">Train, validate, and summarize</text>
  <text class="text" x="454" y="314">the selected anomaly model</text>

  <rect class="box-output" x="830" y="210" width="420" height="134"/>
  <text class="label" x="854" y="252">Saved run artifacts</text>
  <text class="text" x="854" y="282">benchmark_summary.json</text>
  <text class="text" x="854" y="306">predictions_&lt;model&gt;.json</text>
  <text class="text" x="854" y="330">model config + run directory context</text>

  <path class="line" d="M350 277 L430 277"/>
  <path class="line" d="M750 277 L830 277"/>

  <rect class="panel" x="48" y="390" width="1504" height="500"/>
  <text class="section" x="84" y="438">B. streaming_input Runtime</text>

  <rect class="box-runtime" x="100" y="476" width="280" height="112"/>
  <text class="label" x="124" y="518">Artifact Loader</text>
  <text class="text" x="124" y="548">Load model config, run context,</text>
  <text class="text" x="124" y="572">and active threshold</text>

  <rect class="box-runtime" x="450" y="476" width="280" height="112"/>
  <text class="label" x="474" y="518">Model Registry</text>
  <text class="text" x="474" y="548">Build and prepare the active</text>
  <text class="text" x="474" y="572">model from the saved run</text>

  <rect class="box-runtime" x="800" y="476" width="280" height="112"/>
  <text class="label" x="824" y="518">Predictor</text>
  <text class="text" x="824" y="548">Run inference on each frame</text>
  <text class="text" x="824" y="572">score + optional heatmap</text>

  <rect class="box-runtime" x="1150" y="476" width="280" height="112"/>
  <text class="label" x="1174" y="518">Decision Engine</text>
  <text class="text" x="1174" y="548">Emit PASS or FAIL for</text>
  <text class="text" x="1174" y="572">every frame immediately</text>

  <rect class="box-input" x="100" y="670" width="280" height="112"/>
  <text class="label" x="124" y="712">Frame Input</text>
  <text class="text" x="124" y="742">Images from the runtime</text>
  <text class="text" x="124" y="766">input folder</text>

  <rect class="box-runtime" x="430" y="670" width="280" height="112"/>
  <text class="label" x="454" y="712">Input Handler</text>
  <text class="text" x="454" y="742">Read frames and apply</text>
  <text class="text" x="454" y="766">runtime preprocessing</text>

  <rect class="box-output" x="800" y="670" width="280" height="112"/>
  <text class="label" x="824" y="712">Session Outputs</text>
  <text class="text" x="824" y="742">predictions.json</text>
  <text class="text" x="824" y="766">fail heatmaps</text>

  <rect class="box-output" x="1150" y="670" width="280" height="112"/>
  <text class="label" x="1174" y="712">Live Monitoring</text>
  <text class="text" x="1174" y="742">live_status.json</text>
  <text class="text" x="1174" y="766">dashboard status view</text>

  <path class="dash" d="M1040 344 L240 476"/>
  <path class="line" d="M380 532 L450 532"/>
  <path class="line" d="M730 532 L800 532"/>
  <path class="line" d="M1080 532 L1150 532"/>
  <path class="line" d="M380 726 L430 726"/>
  <path class="line" d="M710 726 L800 726"/>
  <path class="line" d="M1290 588 L940 670"/>
  <path class="line" d="M1290 588 L1290 670"/>

</svg>
